<svg id="Layer_1" data-name="Layer 1" xmlns="http://www.w3.org/2000/svg" viewBox="0 0 152.27 30.66"><defs><style>.cls-1{font-size:20.98px;fill:#614cff;font-family:Ransta;}.cls-2{letter-spacing:-0.05em;}.cls-3{letter-spacing:0em;}.cls-4{fill:#6656ff;}.cls-5{fill:#96d4f6;}</style></defs><text class="cls-1" transform="translate(37.47 23.37)">IM<tspan class="cls-2" x="25.94" y="0">A</tspan><tspan class="cls-3" x="40.96" y="0">GINEAI</tspan></text><polygon class="cls-4" points="23.64 0 25.56 3.49 29.05 5.41 25.56 7.32 23.64 10.81 21.73 7.32 18.24 5.41 21.73 3.49 23.64 0"/><polygon class="cls-4" points="23.64 19.85 25.56 23.35 29.05 25.26 25.56 27.17 23.64 30.66 21.73 27.17 18.24 25.26 21.73 23.35 23.64 19.85"/><path class="cls-5" d="M11.62,27.68c-1.3,0-2.38-.21-2.59-.85-.33-1,1.85-2.46,3.73-3.47a62,62,0,0,1,10.11-4.11,62.85,62.85,0,0,1,10.62-2.51c2.13-.26,4.73-.36,5.06.67h0c.33,1-1.85,2.46-3.73,3.48A62.89,62.89,0,0,1,24.71,25a62.72,62.72,0,0,1-10.62,2.5A20.82,20.82,0,0,1,11.62,27.68ZM36,16.85a19.46,19.46,0,0,0-2.44.18A61,61,0,0,0,23,19.52,61,61,0,0,0,12.9,23.61c-2.46,1.32-3.8,2.49-3.6,3.13s2,.82,4.75.48a62.9,62.9,0,0,0,10.57-2.49,61.84,61.84,0,0,0,10.06-4.1c2.46-1.32,3.8-2.49,3.6-3.13h0C38.14,17.08,37.32,16.85,36,16.85Z" transform="translate(-8.86 -1.17)"/><circle class="cls-5" cx="1.71" cy="10.81" r="0.5"/><circle class="cls-5" cx="14.93" cy="1.43" r="0.5"/><circle class="cls-5" cx="0.86" cy="19.85" r="0.86"/><circle class="cls-5" cx="7.07" cy="6.26" r="0.86"/><circle class="cls-5" cx="28.19" cy="5.4" r="0.86"/><polygon class="cls-4" points="12 4.35 16.12 11.88 23.64 15.99 16.12 20.11 12 27.64 7.89 20.11 0.36 15.99 7.89 11.88 12 4.35"/></svg>